# xmcd
#
# Track frame offsets: 
#        150
#        18649
#        31305
#        50949
#        68672
#        81362
#        96729
#        113549
#        128268
#        146597
#        159962
#        177361
#
# Disc length: 2586 seconds
#
# Revision: 0
# Processed by: cddbd v1.5.2PL0 Copyright (c) Steve Scherf et al.
# Submitted via: ExactAudioCopy v1.0b1
#
DISCID=9f0a180c
DTITLE=Trisha Yearwood - Trisha Yearwood Icon
DYEAR=2010
DGENRE=Country
TTITLE0=She's In Love With The Boy
TTITLE1=Wrong Side Of Memphis
TTITLE2=Walkway Joe
TTITLE3=The Song Remembers When
TTITLE4=XXX's and OOO's (An American Girl)
TTITLE5=Thinkin' About You
TTITLE6=Believe Me Baby (I Lied)
TTITLE7=Everybody Knows
TTITLE8=How Do I Live
TTITLE9=Perfect Love
TTITLE10=There Goes My Baby
TTITLE11=I Would've Loved You Anyway
EXTD=
EXTT0=
EXTT1=
EXTT2=
EXTT3=
EXTT4=
EXTT5=
EXTT6=
EXTT7=
EXTT8=
EXTT9=
EXTT10=
EXTT11=
PLAYORDER=
